<svg width="12" height="19" viewBox="0 0 12 19" fill="none" xmlns="http://www.w3.org/2000/svg">
<path d="M9.25 0.25C10.4805 0.25 11.5 1.26953 11.5 2.5V16C11.5 17.2656 10.4805 18.25 9.25 18.25H2.5C1.23438 18.25 0.25 17.2656 0.25 16V2.5C0.25 1.26953 1.23438 0.25 2.5 0.25H9.25ZM10.375 16V2.5C10.375 1.90234 9.84766 1.375 9.25 1.375H2.5C1.86719 1.375 1.375 1.90234 1.375 2.5V16C1.375 16.6328 1.86719 17.125 2.5 17.125H9.25C9.84766 17.125 10.375 16.6328 10.375 16ZM7 14.3125C7.28125 14.3125 7.5625 14.5938 7.5625 14.875C7.5625 15.1914 7.28125 15.4375 7 15.4375H4.75C4.43359 15.4375 4.1875 15.1914 4.1875 14.875C4.1875 14.5938 4.43359 14.3125 4.75 14.3125H7Z" fill="#DA7A8C"/>
</svg>
