<svg width="19" height="19" viewBox="0 0 19 19" fill="none" xmlns="http://www.w3.org/2000/svg">
<path d="M6.82812 6.61328C7.03906 6.40234 7.42578 6.40234 7.63672 6.61328L9.5 8.47656L11.3281 6.61328C11.5391 6.40234 11.9258 6.40234 12.1367 6.61328C12.3477 6.82422 12.3477 7.21094 12.1367 7.42188L10.2734 9.25L12.1367 11.1133C12.3477 11.3242 12.3477 11.7109 12.1367 11.9219C11.9258 12.1328 11.5391 12.1328 11.3281 11.9219L9.5 10.0586L7.63672 11.9219C7.42578 12.1328 7.03906 12.1328 6.82812 11.9219C6.61719 11.7109 6.61719 11.3242 6.82812 11.1133L8.69141 9.25L6.82812 7.42188C6.61719 7.21094 6.61719 6.82422 6.82812 6.61328ZM18.5 9.25C18.5 14.2422 14.457 18.25 9.5 18.25C4.50781 18.25 0.5 14.2422 0.5 9.25C0.5 4.29297 4.50781 0.25 9.5 0.25C14.457 0.25 18.5 4.29297 18.5 9.25ZM9.5 1.375C5.14062 1.375 1.625 4.92578 1.625 9.25C1.625 13.6094 5.14062 17.125 9.5 17.125C13.8242 17.125 17.375 13.6094 17.375 9.25C17.375 4.92578 13.8242 1.375 9.5 1.375Z" fill="#D50709"/>
</svg>
